<svg width="32" height="32" viewBox="0 0 32 32" fill="none" xmlns="http://www.w3.org/2000/svg">
<g clip-path="url(#clip0_705_2)">
<path d="M16 31.9998C24.8366 31.9998 32 24.8363 32 15.9998C32 7.1632 24.8366 -0.000244141 16 -0.000244141C7.16344 -0.000244141 0 7.1632 0 15.9998C0 24.8363 7.16344 31.9998 16 31.9998Z" fill="#007AB9"/>
<path d="M25.5599 17.2873V23.8837H21.7354V17.7294C21.7354 16.1841 21.1832 15.1288 19.7985 15.1288C18.7418 15.1288 18.114 15.8392 17.8368 16.5272C17.7361 16.773 17.7102 17.1144 17.7102 17.4593V23.8835H13.8854C13.8854 23.8835 13.9368 13.46 13.8854 12.381H17.7104V14.011C17.7027 14.0238 17.6919 14.0364 17.6851 14.0487H17.7104V14.011C18.2187 13.229 19.1251 12.1109 21.1573 12.1109C23.6734 12.1109 25.5599 13.7549 25.5599 17.2873ZM9.88443 6.83643C8.57614 6.83643 7.72021 7.69521 7.72021 8.82352C7.72021 9.92787 8.55133 10.8115 9.83423 10.8115H9.85904C11.193 10.8115 12.0224 9.92787 12.0224 8.82352C11.997 7.69521 11.193 6.83643 9.88443 6.83643ZM7.94753 23.8837H11.7708V12.381H7.94753V23.8837Z" fill="#F1F2F2"/>
</g>
<defs>
<clipPath id="clip0_705_2">
<rect width="32" height="32" fill="white"/>
</clipPath>
</defs>
</svg>
